
<svg aria-label="" role="presentation" aria-hidden="true" preserveAspectRatio="xMidYMid meet" data-type="color" viewBox="20 60.914 160 78.172" xmlns:xlink="http://www.w3.org/1999/xlink" xmlns="http://www.w3.org/2000/svg" data-bbox="20 60.914 160 78.172"><g class="_svgImageSource_1tvc6_7" data-type="color"><g>
        <path fill="#fff" d="M179.99 100.004c0 2.561.287 4.642-2.251 4.642h-.48v14.292c0 2.437-1.958 4.41-4.372 4.41s-4.371-1.973-4.371-4.41v12.774c0 4.078-3.273 7.374-7.32 7.374s-4.975-3.304-4.975-7.374c0 4.078-.929 7.374-4.976 7.374s-7.319-3.304-7.319-7.374v-24.698h-87.04v24.698c0 4.078-3.272 7.374-7.32 7.374-4.046 0-4.974-3.304-4.974-7.374 0 4.078-.929 7.374-4.968 7.374s-7.32-3.304-7.32-7.374v-11.838c-.425 1.988-2.174 3.474-4.27 3.474-2.415 0-4.372-1.973-4.372-4.41v-14.292h-1.4c-2.539 0-2.252-2.081-2.252-4.642s-.287-4.643 2.251-4.643h1.4v-14.29c0-2.438 1.95-4.411 4.372-4.411 2.097 0 3.846 1.486 4.272 3.474V68.296c0-4.078 3.28-7.382 7.32-7.382 4.038 0 4.967 3.304 4.967 7.382 0-4.078.936-7.382 4.975-7.382s7.32 3.304 7.32 7.382v24.698h87.039V68.296c0-4.078 3.273-7.382 7.319-7.382 4.047 0 4.976 3.304 4.976 7.382 0-4.078.928-7.382 4.975-7.382s7.32 3.304 7.32 7.382v12.766c0-2.437 1.957-4.41 4.371-4.41s4.372 1.973 4.372 4.41v14.292h.48c2.538 0 2.251 2.081 2.251 4.642z" data-color="1"></path>
    </g></g></svg>